PathFileType  4	(X/Y/Z) C:\Users\antoi\Documents\MyRepositories\mobilecap\ResultsAnalysis
DataRate	CameraRate	NumFrames	NumMarkers	Units	OrigDataRate	OrigDataStartFrame	OrigNumFrames
100.0	100.0	4	51	mm	100.0	503	1341
Frame#	Time	r_knee			r_shank_antsup			r_ankle			r_calc			r_5meta			r_toe			L_knee			L_shank_antsup			L_ankle			L_calc			L_5meta			L_toe			r_sh2			r_sh3			r_sh4			L_sh2			L_sh3			r_thigh1			r_thigh2			r_thigh3			r_thigh4			r_thigh5			L_thigh1			L_thigh2			L_thigh3			L_thigh4			r.ASIS			r.PSIS			L.ASIS			L.PSIS			C7			R_Shoulder			L_Shoulder			R_Sternum			L_Sternum			R_humerus			R_elbow_med			R_elbow_lat			R_forearm			R_wrist_radius			R_wrist_ulna			L_humerus			L_elbow_med			L_elbow_lat			L_forearm			L_wrist_radius			L_wrist_ulna			R_HJC			L_HJC			R_HJC_reg			L_HJC_reg			
		X1	Y1	Z1	X2	Y2	Z2	X3	Y3	Z3	X4	Y4	Z4	X5	Y5	Z5	X6	Y6	Z6	X7	Y7	Z7	X8	Y8	Z8	X9	Y9	Z9	X10	Y10	Z10	X11	Y11	Z11	X12	Y12	Z12	X13	Y13	Z13	X14	Y14	Z14	X15	Y15	Z15	X16	Y16	Z16	X17	Y17	Z17	X18	Y18	Z18	X19	Y19	Z19	X20	Y20	Z20	X21	Y21	Z21	X22	Y22	Z22	X23	Y23	Z23	X24	Y24	Z24	X25	Y25	Z25	X26	Y26	Z26	X27	Y27	Z27	X28	Y28	Z28	X29	Y29	Z29	X30	Y30	Z30	X31	Y31	Z31	X32	Y32	Z32	X33	Y33	Z33	X34	Y34	Z34	X35	Y35	Z35	X36	Y36	Z36	X37	Y37	Z37	X38	Y38	Z38	X39	Y39	Z39	X40	Y40	Z40	X41	Y41	Z41	X42	Y42	Z42	X43	Y43	Z43	X44	Y44	Z44	X45	Y45	Z45	X46	Y46	Z46	X47	Y47	Z47	X48	Y48	Z48	X49	Y49	Z49	X50	Y50	Z50	X51	Y51	Z51	

503	5.02000000	-181.90799	493.88796	-335.51289	-142.81519	444.74435	-341.04980	-258.59039	95.83776	-355.03252	-317.53804	58.15651	-407.34264	-141.19907	39.96532	-311.13360	-98.48538	60.46949	-364.68911	-186.08596	497.66603	-746.63633	-164.93762	417.11126	-779.29370	-251.76658	102.39058	-794.74847	-310.13285	57.18913	-749.40386	-135.11729	41.71717	-833.78499	-90.71159	60.37099	-780.56163	-160.42825	330.38678	-352.66189	-211.45547	450.29650	-306.08134	-227.04181	335.62102	-301.57862	-250.67604	438.69849	-772.75148	-268.98146	319.23586	-793.19814	-135.75593	795.25053	-396.81520	-112.03853	687.04357	-382.98750	-132.28237	666.96247	-320.96436	-200.58339	791.92051	-306.79346	-182.50875	678.01438	-300.03643	-195.68677	813.66799	-698.48386	-181.57319	679.52717	-743.24592	-305.70134	794.77755	-681.91010	-284.71088	656.98676	-695.49516	-161.57652	956.03200	-376.23834	-341.40468	1002.37529	-467.38855	-149.82945	930.33114	-611.41210	-335.55821	995.37865	-566.07843	-230.40274	1447.19024	-509.72865	-160.54951	1414.68541	-339.69678	-160.25525	1406.63353	-663.61471	-115.33746	1359.10191	-481.24182	-111.22668	1355.83013	-518.64206	-203.72243	1194.07245	-233.30754	-279.15724	1100.17527	-256.44194	-234.19326	1110.88177	-201.36865	-104.02883	1091.63771	-256.66357	-24.21747	1104.71518	-314.97964	-23.06572	1060.89236	-304.53686	-213.21866	1190.70904	-760.63097	-268.76653	1078.82812	-713.88072	-242.56570	1087.51877	-780.42212	-102.75508	1075.02861	-731.73957	-14.68145	1093.27066	-677.35689	-16.16621	1046.97543	-674.90153	-241.98536	879.67498	-410.39593	-241.32053	870.93945	-600.86582	-237.02656	885.62196	-408.73228	-227.80518	874.58511	-564.40035	
504	5.03000000	-185.18122	494.78408	-335.94192	-146.25579	445.79318	-341.31799	-258.90295	95.82709	-354.96827	-317.54555	58.14224	-407.33554	-141.19974	39.95208	-311.12674	-98.49617	60.42871	-364.67056	-188.53959	498.46795	-746.89344	-167.49837	417.71654	-779.18936	-252.01092	102.29698	-794.80184	-310.16001	57.17040	-749.43843	-135.15277	41.68538	-833.86073	-90.74639	60.37279	-780.62301	-162.68120	331.05947	-352.44282	-214.94045	451.06872	-306.34265	-229.85754	336.37237	-301.47137	-253.37187	438.78813	-772.99101	-270.95443	319.23499	-793.34900	-133.93282	795.39974	-397.25776	-112.06547	686.85380	-383.19951	-133.15196	667.28566	-321.16479	-199.59492	793.27545	-307.62128	-183.43546	678.97192	-300.71760	-192.85961	814.76991	-699.40458	-180.92766	680.39262	-743.78112	-303.20170	797.73406	-683.10355	-284.54328	659.33695	-696.21465	-158.94766	957.89793	-377.23728	-338.95492	1003.29393	-468.66829	-146.62939	933.16543	-612.45878	-332.86549	996.66914	-567.16655	-232.30695	1449.20271	-510.39963	-162.64650	1417.18387	-339.73933	-162.21425	1409.07737	-664.51963	-116.65957	1361.98937	-481.67736	-112.54042	1358.70419	-519.23993	-207.12818	1196.44862	-234.13344	-282.51780	1102.74902	-257.84806	-237.85461	1113.20600	-202.42320	-107.41446	1093.62666	-257.44714	-27.36129	1106.94826	-315.48393	-26.27907	1063.16610	-304.79965	-215.46134	1193.07031	-761.21166	-270.60860	1081.08029	-714.32472	-244.64132	1089.85655	-780.89074	-104.63426	1077.43649	-732.61156	-16.51585	1095.57531	-678.19461	-17.98418	1049.29763	-675.76198	-238.75621	881.09810	-411.82054	-237.67774	873.05848	-602.31943	-233.88238	887.13950	-410.12198	-224.25809	876.67050	-565.78714	
505	5.04000000	-188.21173	495.46232	-336.60229	-149.42610	446.73939	-341.77865	-259.09608	95.86818	-354.94459	-317.55099	58.12563	-407.33178	-141.19331	39.93625	-311.12446	-98.33453	60.30937	-364.84177	-190.91877	499.12096	-747.12546	-169.85509	418.26580	-779.43885	-252.22486	102.22597	-794.98610	-310.20485	57.12140	-749.43914	-135.14705	41.63332	-833.93747	-90.75895	60.33855	-780.64511	-164.87568	331.74572	-352.31439	-218.23847	451.64315	-306.76682	-232.10202	336.69808	-301.84375	-255.89754	438.83210	-773.28644	-272.87367	319.30039	-793.35325	-132.08014	795.54851	-397.54529	-112.06453	686.56826	-383.56655	-133.97931	667.33659	-321.61713	-198.57189	794.36741	-308.62535	-184.17622	679.85952	-301.47476	-190.13346	815.77778	-700.42159	-180.15164	681.16881	-744.48789	-300.76956	800.36579	-684.41185	-284.19458	661.50611	-697.04219	-156.42251	959.53908	-378.14637	-336.59553	1003.94266	-470.09089	-143.62101	935.59904	-613.47994	-330.27942	997.62132	-568.30708	-234.06109	1450.87365	-511.11970	-164.46875	1419.26550	-339.90215	-164.18641	1411.14607	-665.49002	-117.97024	1364.38573	-482.46538	-113.76011	1361.18455	-520.00460	-210.43253	1198.43448	-234.94517	-285.81392	1104.92235	-259.21706	-241.34683	1115.12179	-203.50946	-110.66670	1095.31764	-258.03250	-30.44825	1109.00264	-315.68759	-29.32076	1065.20382	-305.06667	-217.53641	1195.08267	-762.02439	-272.26275	1082.99827	-715.11965	-246.46199	1091.78529	-781.43422	-106.32431	1079.53857	-733.61512	-18.19835	1097.63021	-679.00990	-19.56071	1051.40190	-676.89306	-235.68282	882.29688	-413.18578	-234.16977	874.79307	-603.70344	-230.88887	888.40267	-411.37739	-220.87521	878.38191	-567.08473	
506	5.05000000	-190.99850	496.10397	-337.24822	-152.34214	447.70006	-342.20981	-259.17481	95.84007	-355.07564	-317.51966	58.06699	-407.43049	-141.18756	39.92300	-311.12768	-98.05902	60.16472	-365.11359	-193.04116	499.60181	-747.55701	-172.01310	418.86740	-780.01799	-252.39355	102.18786	-795.26962	-310.21730	57.04500	-749.46983	-135.11397	41.56829	-834.02202	-90.78308	60.30501	-780.70536	-167.07636	332.74170	-352.55797	-221.29790	452.07966	-307.41752	-234.13142	336.84101	-302.58932	-258.19811	438.85369	-773.63808	-274.69787	319.42979	-793.10615	-130.19077	795.68260	-397.76601	-112.05615	686.35055	-383.75206	-134.73559	667.27096	-322.19978	-197.51092	795.30125	-309.53643	-184.76786	680.69223	-302.26027	-187.58747	816.65580	-701.63306	-179.30109	681.80521	-745.40309	-298.43556	802.67641	-685.89835	-283.15645	664.00756	-698.31400	-153.99622	960.95446	-378.93241	-334.29034	1004.31580	-471.37273	-140.78358	937.63548	-614.58990	-327.83366	998.27420	-569.70528	-235.67705	1452.17903	-511.82134	-166.14060	1420.94731	-340.16181	-166.11058	1412.88508	-666.44173	-119.21079	1366.39640	-483.24194	-114.91482	1363.24071	-520.77302	-213.51992	1200.05944	-235.66818	-288.83689	1106.74464	-260.71430	-244.65053	1116.74919	-204.62922	-113.88026	1097.31513	-258.20711	-33.31001	1110.83259	-315.76541	-32.20105	1066.92160	-305.51595	-219.47760	1196.78345	-763.03878	-273.66408	1084.53066	-715.80573	-248.00323	1093.38545	-782.12144	-107.85893	1081.21983	-734.57404	-19.69682	1099.38816	-679.92715	-20.91416	1053.19255	-678.07191	-232.73909	883.25723	-414.51425	-230.81564	876.17147	-605.04416	-227.94929	889.29427	-412.45013	-217.71251	879.71398	-568.35767	
